<svg width="3000" height="1000" viewBox="0 0 410 133" class="css-1j8o68f">
  <defs id="SvgjsDefs6404"></defs>
  <g id="SvgjsG6405" featurekey="rootContainer" transform="matrix(1,0,0,1,0,0)" fill="#111111">
    <rect xmlns="http://www.w3.org/2000/svg" width="410" height="133" rx="10" ry="10">
    </rect>
  </g>
  <g id="SvgjsG6406" featurekey="symbolFeature-0" transform="matrix(1.160329330860835,0,0,1.160329330860835,-1.5581354228609676,8.396706691391651)" fill="#49beb7">
    <path xmlns="http://www.w3.org/2000/svg" d="M79.2311096,10H20.7692928c-1.2075481,0-2.1899681,0.9820156-2.1899681,2.1895647v75.6208649  c0,1.20755,0.98242,2.1895676,2.1899681,2.1895676h58.4618149c1.2071457,0,2.1895676-0.9820175,2.1895676-2.1895676V12.1895647  C81.4206772,10.9820156,80.4382553,10,79.2311096,10z M20.1495819,26.5522537h59.7008362v52.1380234H20.1495819V26.5522537z   M20.1495819,12.1895647c0-0.3417292,0.2779827-0.6201143,0.6197109-0.6201143h58.4618149  c0.3417282,0,0.6193085,0.2783852,0.6193085,0.6201143v13.2055712H20.1495819V12.1895647z M79.8504181,87.8104324  c0,0.3417282-0.2775803,0.6197128-0.6193085,0.6197128H20.7692928c-0.3417282,0-0.6197109-0.2779846-0.6197109-0.6197128v-7.9630432  h59.7008362V87.8104324z M50.0002022,14.1128473c-2.3408623,0-4.2455864,1.9043207-4.2455864,4.2451811  s1.9047241,4.245182,4.2455864,4.245182s4.245182-1.9043217,4.245182-4.245182S52.3410645,14.1128473,50.0002022,14.1128473z   M50.0002022,21.0329533c-1.4754448,0-2.6753273-1.1998844-2.6753273-2.6749249s1.1998825-2.6753273,2.6753273-2.6753273  c1.4750404,0,2.6749229,1.2002869,2.6749229,2.6753273S51.4752426,21.0329533,50.0002022,21.0329533z M77.8992996,14.4303684  v5.3216057c0,0.5478954-0.4440079,0.9916992-0.9915009,0.9916992H63.885601c-0.5476952,0-0.9916-0.4438038-0.9916-0.9916992  v-5.3216057c0-0.547492,0.4439049-0.9916992,0.9916-0.9916992h13.0221977  C77.4552917,13.4386692,77.8992996,13.8828764,77.8992996,14.4303684z M38.3535919,18.991457H24.7114773  c-0.9795952,0-1.7764244,0.7972317-1.7764244,1.7768269v1.5282974c0,0.9795952,0.7968292,1.7768288,1.7764244,1.7768288h13.6421146  c0.9795952,0,1.7764206-0.7972336,1.7764206-1.7768288v-1.5282974C40.1300125,19.7886887,39.3331871,18.991457,38.3535919,18.991457  z M38.5597572,22.2965813c0,0.1141796-0.092392,0.2065716-0.2061653,0.2065716H24.7114773  c-0.1137753,0-0.2061672-0.092392-0.2061672-0.2065716v-1.5282974c0-0.1137753,0.092392-0.2065697,0.2061672-0.2065697h13.6421146  c0.1137733,0,0.2061653,0.0927944,0.2061653,0.2065697V22.2965813z M59.8300438,14.8737679h-4.5792427v-1.1567125h4.5792427  V14.8737679z M55.2508011,16.4254665h5.2332458V17.58218h-5.2332458V16.4254665z M59.8300438,20.2905903h-4.5792427v-1.1571159  h4.5792427V20.2905903z M55.2508011,21.842289h5.1513443v1.1563091h-5.1513443V21.842289z M50.0002022,36.0500488  c-6.4886093,0-12.1134109,3.7210884-14.8867798,9.1342812c-0.3954887,0.7718124-0.7369156,1.5755005-1.0100555,2.4106598  c-0.4024506,1.230545-0.6595535,2.5232239-0.7649574,3.8594742c-0.0346985,0.4381561-0.0671768,0.8771172-0.0671768,1.3241501  c0,0.1750984,0.0209808,0.3453598,0.026226,0.5188446c0.012207,0.3933716,0.0205765,0.7875481,0.0595093,1.1740608  c0.0570908,0.5652466,0.1418152,1.1224213,0.2540779,1.6703148c0.118515,0.5785599,0.2711258,1.1446114,0.4479408,1.7001724  c0.2904892,0.9126205,0.6636848,1.7869148,1.0993195,2.6244926c2.7897072,5.3635635,8.389801,9.0410843,14.8418961,9.0410843  c0.1911392,0,0.3766289-0.0221939,0.5662537-0.0286484c0.5936852-0.0197678,1.1782951-0.0710068,1.75494-0.1517029  c2.7054863-0.3780365,5.203289-1.3979797,7.3351593-2.9121552c0.4280701-0.3038025,0.8413124-0.6261673,1.2384148-0.9682999  c3.5647469-3.0703125,5.8342018-7.605175,5.8342018-12.6681633C66.7291718,43.5547638,59.224453,36.0500488,50.0002022,36.0500488z   M34.8414917,52.778614c0-0.1339493,0.0166435-0.2638626,0.0201721-0.3970032l5.6165352-3.2897949l0.527317,0.9005165  l-6.1234779,3.5859337C34.8679199,53.311985,34.8414917,53.0485268,34.8414917,52.778614z M35.0672264,55.2889252  l7.4088936-4.3387833c0.1795387-0.1053009,0.3102608-0.2775764,0.362709-0.4789047  c0.0528526-0.2013245,0.0233994-0.4155617-0.0819016-0.5951004l-1.3205185-2.2545204  c-0.2194786-0.3744087-0.7004013-0.5002861-1.0740013-0.2808075l-5.3242302,3.1179237  c0.2268448-1.4669724,0.6617699-2.8625336,1.2788582-4.1600533l5.3658867-3.1425323l5.0890121,8.6896706l-10.9002151,6.3835068  C35.5080032,57.2900772,35.2379913,56.3072548,35.0672264,55.2889252z M43.037735,42.3625488l0.593483-0.3473778  l5.0892143,8.6892662l-0.5938873,0.3477821L43.037735,42.3625488z M51.4118996,67.8663177l-2.7197075-4.3694496  c-0.1452446-0.2332001-0.3990211-0.3699722-0.6665115-0.3699722c-0.0528526,0-0.1061096,0.0052452-0.1593666,0.0165443  c-0.3219604,0.0661659-0.56847,0.3268013-0.6168861,0.6523895l-0.1678391,1.1224213l-2.1887589,0.0286407  c0.4070892-1.5872002,1.0029984-4.643795,0.2787895-6.8555489c1.5557327,1.0933685,3.3398247,1.283802,4.611927,0.4425926  c1.271698-0.8416138,1.7933693-2.5583229,1.3951569-4.4178619c1.7530212,1.5311241,4.79953,2.1778641,6.4194107,2.4239731  l-0.8823586,2.00317l-1.0982132-0.2848434c-0.3195381-0.0823059-0.6548119,0.0427666-0.8420143,0.3130836  c-0.1876106,0.2703171-0.1863976,0.6289902,0.0028229,0.898098l3.9767799,5.6621208  C56.6409111,66.634964,54.1327171,67.6137466,51.4118996,67.8663177z M59.9868889,64.1536942l-2.7409897-3.9022408  c0.2735443-0.0282402,0.5212669-0.2001152,0.6378632-0.4647827l1.5763092-3.5786667  c0.1020775-0.2323914,0.0855331-0.4990768-0.0435715-0.71735c-0.129509-0.217865-0.3562546-0.3598824-0.6088181-0.3812675  c-1.482708-0.1258774-5.6294441-0.8371735-6.9963608-2.5934258c-0.2521591-0.324379-0.7112923-0.3982124-1.0522156-0.1726799  l-0.960228,0.6350441c-0.2977524,0.196888-0.4252472,0.5700836-0.3102608,0.9081841  c0.492218,1.4443779,0.2626495,2.7862778-0.5716972,3.3382072c-0.832737,0.5519295-2.1580963,0.2388458-3.2958488-0.7790756  c-0.267086-0.2384453-0.6604576-0.2658806-0.9570007-0.0698013l-0.9598236,0.6354485  c-0.3417282,0.2263374-0.4518738,0.6778069-0.2525673,1.0364799c1.0820732,1.9446678,0.1153908,6.0397644-0.3481827,7.4530716  c-0.0790787,0.2408676-0.037117,0.5055389,0.1129684,0.7096863c0.1504898,0.2041473,0.3889351,0.3267975,0.6431122,0.320343  l3.9103127-0.0516434c0.2888756-0.0040359,0.5438576-0.1646118,0.6769981-0.4054718l1.1475372,1.843399  c-5.7024727-0.1517029-10.6223335-3.4604568-13.0785828-8.2458687l13.6751938-8.0086365  c0.3740044-0.2194786,0.4998856-0.7004013,0.2808075-1.0740013l-0.5785599-0.988472l-5.3038521-9.0560112  c-0.1053009-0.1795387-0.2775803-0.3098564-0.4789047-0.362709c-0.2005196-0.0520439-0.4155617-0.022995-0.5951004,0.0819016  l-5.4367943,3.1840897c2.7773018-3.5403404,7.0831032-5.8275414,11.9215698-5.8275414  c8.3584328,0,15.1587105,6.8002777,15.1587105,15.1587105C65.1589127,57.3110542,63.1494904,61.3734703,59.9868889,64.1536942z   M76.4343414,46.5258255l-3.0852432-1.8510628c-3.3630142-9.6611977-12.5563049-16.6159992-23.348896-16.6159992  c-13.6308174,0-24.720253,11.0894375-24.720253,24.7198505c0,13.6312218,11.0894356,24.7206535,24.720253,24.7206535  c10.7924919,0,19.9856758-6.9548035,23.348896-16.6159973l3.0852432-1.8510628  c0.6986923-0.4195976,1.126152-1.1744652,1.126152-1.989048v-2.8181496v-2.8919868v-2.8181496  C77.5604935,47.6998863,77.1330338,46.9450188,76.4343414,46.5258255z M50.0002022,74.1941452  c-11.8083992,0-21.4151287-9.607132-21.4151287-21.4155312c0-0.377636,0.0104904-0.7528534,0.0298557-1.1256485  c0.0508366-0.9747543,0.1718731-1.9309464,0.3491936-2.8673744c1.8766823-9.9056892,10.5925789-17.4217033,21.0360794-17.4217033  c11.8083992,0,21.4151268,9.6063271,21.4151268,21.4147263S61.8086014,74.1941452,50.0002022,74.1941452z M62.1394348,58.9470749  l-1.3991928-0.7125053c0.8658218-1.6989594,1.3043785-3.5346909,1.3043785-5.4559555h1.5702591  C63.6148796,54.9500198,63.1182213,57.0254059,62.1394348,58.9470749z M61.9312515,51.117981  c-0.1383858-1.0013809-0.4030533-1.9825897-0.7871475-2.9161911l1.4516411-0.5971184  c0.4349289,1.0562515,0.7342949,2.1665688,0.8904305,3.2986717L61.9312515,51.117981z M53.3553543,42.4787445h-0.8262787  c0-0.5620193-0.457119-1.0195389-1.0191345-1.0195389c-0.1646118,0-0.3280106,0.0403442-0.4724503,0.1161957l-0.3840904-0.7318726  c0.2626495-0.1375771,0.5587883-0.2106056,0.8565407-0.2106056C52.527462,40.6329231,53.3553543,41.4608192,53.3553543,42.4787445z   M55.7793274,43.1400108c-0.3131828,0-0.6100273,0.0677795-0.879837,0.1863976  c0.0684853-0.2727394,0.1156883-0.5535431,0.1156883-0.8476639c0-1.9325638-1.5726776-3.504837-3.5052376-3.504837  c-1.9325638,0-3.504837,1.5722733-3.504837,3.504837c0,1.93256,1.5722733,3.5048332,3.504837,3.5048332  c0.7802849,0,1.494606-0.2650719,2.0777054-0.697979c-0.0004044,0.0173492-0.005146,0.0330811-0.005146,0.0508347  c0,1.2111778,0.9856491,2.1964226,2.1968269,2.1964226c1.2111816,0,2.1964264-0.9852448,2.1964264-2.1964226  C57.9757538,44.1252518,56.990509,43.1400108,55.7793274,43.1400108z M51.5099411,44.8264618  c-1.2946968,0-2.3477211-1.0530243-2.3477211-2.3477173c0-1.2946968,1.0530243-2.3481255,2.3477211-2.3481255  c1.294693,0,2.3481216,1.0534286,2.3481216,2.3481255C53.8580627,43.7734375,52.8046341,44.8264618,51.5099411,44.8264618z   M55.7793274,46.3757401c-0.5733109,0-1.0397072-0.4663963-1.0397072-1.0393066  c0-0.5737152,0.4663963-1.0401154,1.0397072-1.0401154c0.5733147,0,1.0393066,0.4664001,1.0393066,1.0401154  C56.818634,45.9093437,56.3526421,46.3757401,55.7793274,46.3757401z">
    </path>
  </g>
  <g id="SvgjsG6407" featurekey="nameFeature-0" transform="matrix(0.9766296088537177,0,0,0.9766296088537177,110.20967153485762,18.8387848664074)" fill="#eafff7">
    <path d="M2.8571 35.7143 l0 -24.286 l7.4286 0 l0 22.286 l15.429 0 l0 6.2857 l-18.571 0 z M29.99995714285714 40 l0 -24.286 l4.2857 -4.2857 l16.571 0 l4.2857 4.2857 l0 24.286 l-7.4286 0 l0 -8 l-10.286 0 l0 8 l-7.4286 0 z M37.42885714285714 25.714 l10.286 0 l0 -8 l-10.286 0 l0 8 z M79.429 11.428999999999998 l6.8571 0 l0 3.4286 l-9.5429 25.143 l-7.7143 0 l-9.6 -25.143 l0 -3.4286 l6.8571 0 l6.5714 18.571 z M90.57138571428571 40 l0 -24.286 l4.2857 -4.2857 l16.571 0 l4.2857 4.2857 l0 24.286 l-7.4286 0 l0 -8 l-10.286 0 l0 8 l-7.4286 0 z M98.00028571428571 25.714 l10.286 0 l0 -8 l-10.286 0 l0 8 z M139.14242857142858 11.428999999999998 l7.4286 0 l0 28.571 l-6.5714 0 l-11.143 -16 l0 16 l-7.4286 0 l0 -28.571 l6.5714 0 l11.143 15.886 l0 -15.886 z M173.14257142857142 11.428999999999998 l4.2857 4.2857 l0 20 l-4.2857 4.2857 l-20.857 0 l0 -28.571 l20.857 0 z M169.99957142857141 33.7143 l0 -16 l-10.286 0 l0 16 l10.286 0 z M183.14281428571428 40 l0 -24.286 l4.2857 -4.2857 l16.571 0 l4.2857 4.2857 l0 24.286 l-7.4286 0 l0 -8 l-10.286 0 l0 8 l-7.4286 0 z M190.57171428571428 25.714 l10.286 0 l0 -8 l-10.286 0 l0 8 z M239.71385714285714 15.713999999999999 l0 10 l-4.2857 4.2857 l4.2857 6.5714 l0 3.4286 l-6.8571 0 l-5.9429 -9.7143 l-5.4857 0 l0 9.7143 l-7.4286 0 l0 -28.571 l21.429 0 z M232.28585714285714 24 l0 -6.2857 l-10.857 0 l0 6.2857 l10.857 0 z M244.57142857142856 40 l0 -5.7143 l2.2857 0 l0 -17.143 l-2.2857 0 l0 -5.7143 l12 0 l0 5.7143 l-2.2857 0 l0 17.143 l2.2857 0 l0 5.7143 l-12 0 z M261.42852857142856 40 l0 -24.286 l4.2857 -4.2857 l16.571 0 l4.2857 4.2857 l0 24.286 l-7.4286 0 l0 -8 l-10.286 0 l0 8 l-7.4286 0 z M268.85742857142856 25.714 l10.286 0 l0 -8 l-10.286 0 l0 8 z"></path>
  </g>
  <g id="SvgjsG6408" featurekey="nameFeature-1" transform="matrix(1.222942711286763,0,0,1.222942711286763,109.50593036745319,54.023845096452476)" fill="#eafff7">
    <path d="M2.8571 35.7143 l0 -24.286 l7.4286 0 l0 22.286 l15.429 0 l0 6.2857 l-18.571 0 z M29.99995714285714 35.7143 l0 -24.286 l7.4286 0 l0 22.286 l10.286 0 l0 -22.286 l7.4286 0 l0 24.286 l-4.2857 4.2857 l-16.571 0 z M82 11.428999999999998 l7.4286 0 l0 28.571 l-7.4286 0 l0 -16 l-5.0286 9.7143 l-3.7143 0 l-4.9714 -9.7143 l0 16 l-7.4286 0 l0 -28.571 l7.4286 0 l6.8571 12.971 z M94.28571428571428 40 l0 -5.7143 l2.2857 0 l0 -17.143 l-2.2857 0 l0 -5.7143 l12 0 l0 5.7143 l-2.2857 0 l0 17.143 l2.2857 0 l0 5.7143 l-12 0 z M128.85671428571428 11.428999999999998 l7.4286 0 l0 28.571 l-6.5714 0 l-11.143 -16 l0 16 l-7.4286 0 l0 -28.571 l6.5714 0 l11.143 15.886 l0 -15.886 z M162.85685714285714 11.428999999999998 l4.2857 4.2857 l0 20 l-4.2857 4.2857 l-16.571 0 l-4.2857 -4.2857 l0 -20 l4.2857 -4.2857 l16.571 0 z M159.71385714285714 33.7143 l0 -16 l-10.286 0 l0 16 l10.286 0 z M190.857 17.714 l-10.571 0 l0 4.8571 l14 0 l4.2857 4.2857 l0 8.8571 l-4.2857 4.2857 l-17.143 0 l-4.2857 -4.2857 l0 -4.2857 l5.4286 0 l2.2857 2.2857 l10.571 0 l0 -4.8571 l-14 0 l-4.2857 -4.2857 l0 -8.8571 l4.2857 -4.2857 l17.143 0 l4.2857 4.2857 l0 4.2857 l-5.4286 0 z M204.28567142857142 40 l0 -24.286 l4.2857 -4.2857 l16.571 0 l4.2857 4.2857 l0 24.286 l-7.4286 0 l0 -8 l-10.286 0 l0 8 l-7.4286 0 z M211.71457142857142 25.714 l10.286 0 l0 -8 l-10.286 0 l0 8 z"></path>
  </g>
</svg>